<svg xmlns="http://www.w3.org/2000/svg" xmlns:xlink="http://www.w3.org/1999/xlink" width="300" zoomAndPan="magnify" viewBox="0 0 224.87999 225" height="300" preserveAspectRatio="xMidYMid meet" version="1.0"><defs><g/><clipPath id="c435dbf34d"><path d="M 0 0.0585938 L 224.761719 0.0585938 L 224.761719 224.9375 L 0 224.9375 Z M 0 0.0585938 " clip-rule="nonzero"/></clipPath><clipPath id="60cc705c27"><path d="M 11 0.0585938 L 215 0.0585938 L 215 218 L 11 218 Z M 11 0.0585938 " clip-rule="nonzero"/></clipPath><clipPath id="81605ee12e"><path d="M 196 188 L 202.542969 188 L 202.542969 194.519531 L 196 194.519531 Z M 196 188 " clip-rule="nonzero"/></clipPath><clipPath id="0a93c1e525"><path d="M 0.957031 0.0585938 L 8 0.0585938 L 8 189 L 0.957031 189 Z M 0.957031 0.0585938 " clip-rule="nonzero"/></clipPath><clipPath id="a5cf91026b"><path d="M 0.957031 188 L 8 188 L 8 194.519531 L 0.957031 194.519531 Z M 0.957031 188 " clip-rule="nonzero"/></clipPath><clipPath id="f05b3f1be6"><path d="M 196 0.0585938 L 202.542969 0.0585938 L 202.542969 189 L 196 189 Z M 196 0.0585938 " clip-rule="nonzero"/></clipPath><clipPath id="d5f8dbce77"><path d="M 7 188 L 197 188 L 197 194.519531 L 7 194.519531 Z M 7 188 " clip-rule="nonzero"/></clipPath><clipPath id="44a98443f4"><rect x="0" width="79" y="0" height="128"/></clipPath><clipPath id="4d5581a4e1"><rect x="0" width="85" y="0" height="127"/></clipPath><clipPath id="a65e4fa71e"><path d="M 195 207 L 201.730469 207 L 201.730469 213.535156 L 195 213.535156 Z M 195 207 " clip-rule="nonzero"/></clipPath><clipPath id="53fcf4b5a8"><path d="M 0.148438 18 L 7 18 L 7 208 L 0.148438 208 Z M 0.148438 18 " clip-rule="nonzero"/></clipPath><clipPath id="0281646401"><path d="M 0.148438 207 L 7 207 L 7 213.535156 L 0.148438 213.535156 Z M 0.148438 207 " clip-rule="nonzero"/></clipPath><clipPath id="6f41cb9429"><path d="M 195 18 L 201.730469 18 L 201.730469 208 L 195 208 Z M 195 18 " clip-rule="nonzero"/></clipPath><clipPath id="74c176ac50"><path d="M 6 207 L 196 207 L 196 213.535156 L 6 213.535156 Z M 6 207 " clip-rule="nonzero"/></clipPath><clipPath id="b52294368b"><path d="M 195 11.953125 L 201.730469 11.953125 L 201.730469 19 L 195 19 Z M 195 11.953125 " clip-rule="nonzero"/></clipPath><clipPath id="b8f794b1b5"><path d="M 0.148438 11.953125 L 7 11.953125 L 7 19 L 0.148438 19 Z M 0.148438 11.953125 " clip-rule="nonzero"/></clipPath><clipPath id="e23733197d"><path d="M 6 11.953125 L 196 11.953125 L 196 19 L 6 19 Z M 6 11.953125 " clip-rule="nonzero"/></clipPath><clipPath id="a046490255"><rect x="0" width="79" y="0" height="128"/></clipPath><clipPath id="aa8d00f189"><path d="M 109 91 L 194 91 L 194 217.863281 L 109 217.863281 Z M 109 91 " clip-rule="nonzero"/></clipPath><clipPath id="bfd11a4953"><rect x="0" width="85" y="0" height="127"/></clipPath><clipPath id="112c708e58"><rect x="0" width="204" y="0" height="218"/></clipPath></defs><g clip-path="url(#c435dbf34d)"><path fill="#ffffff" d="M 0 0.0585938 L 224.878906 0.0585938 L 224.878906 224.941406 L 0 224.941406 Z M 0 0.0585938 " fill-opacity="1" fill-rule="nonzero"/><path fill="#ffffff" d="M 0 0.0585938 L 224.878906 0.0585938 L 224.878906 224.941406 L 0 224.941406 Z M 0 0.0585938 " fill-opacity="1" fill-rule="nonzero"/></g><g clip-path="url(#60cc705c27)"><g transform="matrix(1, 0, 0, 1, 11, -0.000000000000003234)"><g clip-path="url(#112c708e58)"><g clip-path="url(#81605ee12e)"><path fill="#ffffff" d="M 196.5625 188.539062 L 202.542969 188.539062 L 202.542969 194.519531 L 196.5625 194.519531 Z M 196.5625 188.539062 " fill-opacity="1" fill-rule="nonzero"/></g><g clip-path="url(#0a93c1e525)"><path fill="#ffffff" d="M 0.957031 -1.019531 L 7.003906 -1.019531 L 7.003906 188.539062 L 0.957031 188.539062 Z M 0.957031 -1.019531 " fill-opacity="1" fill-rule="nonzero"/></g><g clip-path="url(#a5cf91026b)"><path fill="#ffffff" d="M 0.957031 188.539062 L 7.003906 188.539062 L 7.003906 194.519531 L 0.957031 194.519531 Z M 0.957031 188.539062 " fill-opacity="1" fill-rule="nonzero"/></g><g clip-path="url(#f05b3f1be6)"><path fill="#ffffff" d="M 196.5625 -1.019531 L 202.542969 -1.019531 L 202.542969 188.539062 L 196.5625 188.539062 Z M 196.5625 -1.019531 " fill-opacity="1" fill-rule="nonzero"/></g><g clip-path="url(#d5f8dbce77)"><path fill="#ffffff" d="M 7.003906 188.539062 L 196.5625 188.539062 L 196.5625 194.519531 L 7.003906 194.519531 Z M 7.003906 188.539062 " fill-opacity="1" fill-rule="nonzero"/></g><g transform="matrix(1, 0, 0, 1, 16, 2)"><g clip-path="url(#44a98443f4)"><g fill="#ffffff" fill-opacity="1"><g transform="translate(5.130152, 91.000806)"><g><path d="M 67.109375 -84.953125 L 67.109375 -75.359375 L 38.71875 -75.359375 L 38.71875 0 L 28.640625 0 L 28.640625 -75.359375 L 0 -75.359375 L 0 -84.953125 Z M 67.109375 -84.953125 "/></g></g></g></g></g><g transform="matrix(1, 0, 0, 1, 110, 72)"><g clip-path="url(#4d5581a4e1)"><g fill="#ffffff" fill-opacity="1"><g transform="translate(4.765298, 90.610975)"><g><path d="M 54.484375 -76.578125 C 53.515625 -75.359375 52.566406 -74.140625 51.640625 -72.921875 C 50.710938 -71.710938 49.757812 -70.503906 48.78125 -69.296875 C 48.132812 -69.941406 47.285156 -70.648438 46.234375 -71.421875 C 45.179688 -72.191406 43.988281 -72.898438 42.65625 -73.546875 C 41.320312 -74.191406 39.820312 -74.734375 38.15625 -75.171875 C 36.5 -75.617188 34.742188 -75.84375 32.890625 -75.84375 C 28.191406 -75.84375 24.707031 -74.507812 22.4375 -71.84375 C 20.175781 -69.175781 19.046875 -66.019531 19.046875 -62.375 C 19.046875 -60.351562 19.429688 -58.65625 20.203125 -57.28125 C 20.972656 -55.90625 21.984375 -54.75 23.234375 -53.8125 C 24.492188 -52.882812 25.910156 -52.097656 27.484375 -51.453125 C 29.066406 -50.804688 30.707031 -50.203125 32.40625 -49.640625 C 35.070312 -48.660156 37.941406 -47.503906 41.015625 -46.171875 C 44.085938 -44.835938 46.9375 -43.140625 49.5625 -41.078125 C 52.195312 -39.015625 54.382812 -36.484375 56.125 -33.484375 C 57.863281 -30.492188 58.734375 -26.894531 58.734375 -22.6875 C 58.734375 -19.050781 58.066406 -15.773438 56.734375 -12.859375 C 55.398438 -9.953125 53.578125 -7.46875 51.265625 -5.40625 C 48.960938 -3.34375 46.273438 -1.765625 43.203125 -0.671875 C 40.128906 0.421875 36.894531 0.96875 33.5 0.96875 C 30.425781 0.96875 27.429688 0.546875 24.515625 -0.296875 C 21.597656 -1.148438 18.925781 -2.242188 16.5 -3.578125 C 14.070312 -4.910156 11.90625 -6.382812 10 -8 C 8.101562 -9.625 6.628906 -11.242188 5.578125 -12.859375 L 11.890625 -19.171875 C 12.941406 -18.035156 14.195312 -16.84375 15.65625 -15.59375 C 17.113281 -14.34375 18.691406 -13.191406 20.390625 -12.140625 C 22.085938 -11.085938 23.945312 -10.234375 25.96875 -9.578125 C 27.988281 -8.929688 30.175781 -8.609375 32.53125 -8.609375 C 34.625 -8.609375 36.640625 -8.910156 38.578125 -9.515625 C 40.523438 -10.128906 42.25 -11.019531 43.75 -12.1875 C 45.25 -13.363281 46.441406 -14.84375 47.328125 -16.625 C 48.222656 -18.40625 48.671875 -20.46875 48.671875 -22.8125 C 48.671875 -26.050781 47.878906 -28.679688 46.296875 -30.703125 C 44.722656 -32.722656 42.78125 -34.398438 40.46875 -35.734375 C 38.164062 -37.078125 35.757812 -38.148438 33.25 -38.953125 C 30.738281 -39.765625 28.554688 -40.535156 26.703125 -41.265625 C 25.242188 -41.828125 23.503906 -42.59375 21.484375 -43.5625 C 19.460938 -44.539062 17.539062 -45.859375 15.71875 -47.515625 C 13.894531 -49.171875 12.335938 -51.234375 11.046875 -53.703125 C 9.753906 -56.171875 9.066406 -59.1875 8.984375 -62.75 C 8.898438 -65.414062 9.257812 -68.082031 10.0625 -70.75 C 10.875 -73.414062 12.210938 -75.84375 14.078125 -78.03125 C 15.941406 -80.21875 18.410156 -82 21.484375 -83.375 C 24.554688 -84.75 28.316406 -85.4375 32.765625 -85.4375 C 36.003906 -85.4375 39.363281 -84.867188 42.84375 -83.734375 C 46.320312 -82.597656 50.203125 -80.210938 54.484375 -76.578125 Z M 54.484375 -76.578125 "/></g></g></g></g></g><g clip-path="url(#a65e4fa71e)"><path fill="#000000" d="M 195.917969 207.722656 L 201.90625 207.722656 L 201.90625 213.707031 L 195.917969 213.707031 Z M 195.917969 207.722656 " fill-opacity="1" fill-rule="nonzero"/></g><g clip-path="url(#53fcf4b5a8)"><path fill="#000000" d="M 0.148438 18.003906 L 6.199219 18.003906 L 6.199219 207.722656 L 0.148438 207.722656 Z M 0.148438 18.003906 " fill-opacity="1" fill-rule="nonzero"/></g><g clip-path="url(#0281646401)"><path fill="#000000" d="M 0.148438 207.722656 L 6.199219 207.722656 L 6.199219 213.707031 L 0.148438 213.707031 Z M 0.148438 207.722656 " fill-opacity="1" fill-rule="nonzero"/></g><g clip-path="url(#6f41cb9429)"><path fill="#000000" d="M 195.917969 18.003906 L 201.90625 18.003906 L 201.90625 207.722656 L 195.917969 207.722656 Z M 195.917969 18.003906 " fill-opacity="1" fill-rule="nonzero"/></g><g clip-path="url(#74c176ac50)"><path fill="#000000" d="M 6.199219 207.722656 L 195.917969 207.722656 L 195.917969 213.707031 L 6.199219 213.707031 Z M 6.199219 207.722656 " fill-opacity="1" fill-rule="nonzero"/></g><g clip-path="url(#b52294368b)"><path fill="#000000" d="M 195.917969 11.953125 L 201.90625 11.953125 L 201.90625 18.003906 L 195.917969 18.003906 Z M 195.917969 11.953125 " fill-opacity="1" fill-rule="nonzero"/></g><g clip-path="url(#b8f794b1b5)"><path fill="#000000" d="M 0.148438 11.953125 L 6.199219 11.953125 L 6.199219 18.003906 L 0.148438 18.003906 Z M 0.148438 11.953125 " fill-opacity="1" fill-rule="nonzero"/></g><g clip-path="url(#e23733197d)"><path fill="#000000" d="M 6.199219 11.953125 L 195.917969 11.953125 L 195.917969 18.003906 L 6.199219 18.003906 Z M 6.199219 11.953125 " fill-opacity="1" fill-rule="nonzero"/></g><g transform="matrix(1, 0, 0, 1, 15, 21)"><g clip-path="url(#a046490255)"><g fill="#000000" fill-opacity="1"><g transform="translate(5.31907, 91.011737)"><g><path d="M 67.109375 -84.953125 L 67.109375 -75.359375 L 38.71875 -75.359375 L 38.71875 0 L 28.640625 0 L 28.640625 -75.359375 L 0 -75.359375 L 0 -84.953125 Z M 67.109375 -84.953125 "/></g></g></g></g></g><g clip-path="url(#aa8d00f189)"><g transform="matrix(1, 0, 0, 1, 109, 91)"><g clip-path="url(#bfd11a4953)"><g fill="#000000" fill-opacity="1"><g transform="translate(4.954222, 90.621906)"><g><path d="M 54.484375 -76.578125 C 53.515625 -75.359375 52.566406 -74.140625 51.640625 -72.921875 C 50.710938 -71.710938 49.757812 -70.503906 48.78125 -69.296875 C 48.132812 -69.941406 47.285156 -70.648438 46.234375 -71.421875 C 45.179688 -72.191406 43.988281 -72.898438 42.65625 -73.546875 C 41.320312 -74.191406 39.820312 -74.734375 38.15625 -75.171875 C 36.5 -75.617188 34.742188 -75.84375 32.890625 -75.84375 C 28.191406 -75.84375 24.707031 -74.507812 22.4375 -71.84375 C 20.175781 -69.175781 19.046875 -66.019531 19.046875 -62.375 C 19.046875 -60.351562 19.429688 -58.65625 20.203125 -57.28125 C 20.972656 -55.90625 21.984375 -54.75 23.234375 -53.8125 C 24.492188 -52.882812 25.910156 -52.097656 27.484375 -51.453125 C 29.066406 -50.804688 30.707031 -50.203125 32.40625 -49.640625 C 35.070312 -48.660156 37.941406 -47.503906 41.015625 -46.171875 C 44.085938 -44.835938 46.9375 -43.140625 49.5625 -41.078125 C 52.195312 -39.015625 54.382812 -36.484375 56.125 -33.484375 C 57.863281 -30.492188 58.734375 -26.894531 58.734375 -22.6875 C 58.734375 -19.050781 58.066406 -15.773438 56.734375 -12.859375 C 55.398438 -9.953125 53.578125 -7.46875 51.265625 -5.40625 C 48.960938 -3.34375 46.273438 -1.765625 43.203125 -0.671875 C 40.128906 0.421875 36.894531 0.96875 33.5 0.96875 C 30.425781 0.96875 27.429688 0.546875 24.515625 -0.296875 C 21.597656 -1.148438 18.925781 -2.242188 16.5 -3.578125 C 14.070312 -4.910156 11.90625 -6.382812 10 -8 C 8.101562 -9.625 6.628906 -11.242188 5.578125 -12.859375 L 11.890625 -19.171875 C 12.941406 -18.035156 14.195312 -16.84375 15.65625 -15.59375 C 17.113281 -14.34375 18.691406 -13.191406 20.390625 -12.140625 C 22.085938 -11.085938 23.945312 -10.234375 25.96875 -9.578125 C 27.988281 -8.929688 30.175781 -8.609375 32.53125 -8.609375 C 34.625 -8.609375 36.640625 -8.910156 38.578125 -9.515625 C 40.523438 -10.128906 42.25 -11.019531 43.75 -12.1875 C 45.25 -13.363281 46.441406 -14.84375 47.328125 -16.625 C 48.222656 -18.40625 48.671875 -20.46875 48.671875 -22.8125 C 48.671875 -26.050781 47.878906 -28.679688 46.296875 -30.703125 C 44.722656 -32.722656 42.78125 -34.398438 40.46875 -35.734375 C 38.164062 -37.078125 35.757812 -38.148438 33.25 -38.953125 C 30.738281 -39.765625 28.554688 -40.535156 26.703125 -41.265625 C 25.242188 -41.828125 23.503906 -42.59375 21.484375 -43.5625 C 19.460938 -44.539062 17.539062 -45.859375 15.71875 -47.515625 C 13.894531 -49.171875 12.335938 -51.234375 11.046875 -53.703125 C 9.753906 -56.171875 9.066406 -59.1875 8.984375 -62.75 C 8.898438 -65.414062 9.257812 -68.082031 10.0625 -70.75 C 10.875 -73.414062 12.210938 -75.84375 14.078125 -78.03125 C 15.941406 -80.21875 18.410156 -82 21.484375 -83.375 C 24.554688 -84.75 28.316406 -85.4375 32.765625 -85.4375 C 36.003906 -85.4375 39.363281 -84.867188 42.84375 -83.734375 C 46.320312 -82.597656 50.203125 -80.210938 54.484375 -76.578125 Z M 54.484375 -76.578125 "/></g></g></g></g></g></g></g></g></g></svg>