<svg xmlns="http://www.w3.org/2000/svg" xmlns:xlink="http://www.w3.org/1999/xlink" width="700" zoomAndPan="magnify" viewBox="0 0 525 119.999999" height="160" preserveAspectRatio="xMidYMid meet" version="1.0"><defs><g/><clipPath id="27bc349afb"><rect x="0" width="426" y="0" height="78"/></clipPath><clipPath id="0da7594135"><path d="M 90 101 L 92.675781 101 L 92.675781 104.222656 L 90 104.222656 Z M 90 101 " clip-rule="nonzero"/></clipPath><clipPath id="b55fdca8b3"><path d="M 4.175781 18 L 7 18 L 7 102 L 4.175781 102 Z M 4.175781 18 " clip-rule="nonzero"/></clipPath><clipPath id="2ac0f835c4"><path d="M 4.175781 101 L 7 101 L 7 104.222656 L 4.175781 104.222656 Z M 4.175781 101 " clip-rule="nonzero"/></clipPath><clipPath id="91f68db95b"><path d="M 90 18 L 92.675781 18 L 92.675781 102 L 90 102 Z M 90 18 " clip-rule="nonzero"/></clipPath><clipPath id="b3e5a846b6"><path d="M 6 101 L 91 101 L 91 104.222656 L 6 104.222656 Z M 6 101 " clip-rule="nonzero"/></clipPath><clipPath id="53af248a48"><path d="M 90 15.722656 L 92.675781 15.722656 L 92.675781 19 L 90 19 Z M 90 15.722656 " clip-rule="nonzero"/></clipPath><clipPath id="ca42d1f318"><path d="M 4.175781 15.722656 L 7 15.722656 L 7 19 L 4.175781 19 Z M 4.175781 15.722656 " clip-rule="nonzero"/></clipPath><clipPath id="1cfd4458b3"><path d="M 6 15.722656 L 91 15.722656 L 91 19 L 6 19 Z M 6 15.722656 " clip-rule="nonzero"/></clipPath><clipPath id="49f3ac2922"><rect x="0" width="36" y="0" height="57"/></clipPath><clipPath id="c7af5baacd"><rect x="0" width="38" y="0" height="56"/></clipPath></defs><rect x="-52.5" width="630" fill="#ffffff" y="-12" height="143.999998" fill-opacity="1"/><rect x="-52.5" width="630" fill="#ffffff" y="-12" height="143.999998" fill-opacity="1"/><g transform="matrix(1, 0, 0, 1, 97, 19)"><g clip-path="url(#27bc349afb)"><g fill="#000000" fill-opacity="1"><g transform="translate(1.94552, 37.810602)"><g><path d="M 27.1875 -34.421875 L 27.1875 -30.53125 L 15.6875 -30.53125 L 15.6875 0 L 11.609375 0 L 11.609375 -30.53125 L 0 -30.53125 L 0 -34.421875 Z M 27.1875 -34.421875 "/></g></g></g><g fill="#000000" fill-opacity="1"><g transform="translate(31.148069, 37.810602)"><g><path d="M 3.828125 0 L 3.828125 -34.421875 L 7.921875 -34.421875 L 7.921875 -19.28125 L 26.5 -19.28125 L 26.5 -34.421875 L 30.578125 -34.421875 L 30.578125 0 L 26.5 0 L 26.5 -15.390625 L 7.921875 -15.390625 L 7.921875 0 Z M 3.828125 0 "/></g></g></g><g fill="#000000" fill-opacity="1"><g transform="translate(67.577249, 37.810602)"><g><path d="M 3.390625 0 L 3.390625 -34.421875 L 24.59375 -34.421875 L 24.59375 -30.53125 L 7.46875 -30.53125 L 7.46875 -19.28125 L 22.671875 -19.28125 L 22.671875 -15.390625 L 7.46875 -15.390625 L 7.46875 -3.890625 L 25.28125 -3.890625 L 25.28125 0 Z M 3.390625 0 "/></g></g></g><g fill="#000000" fill-opacity="1"><g transform="translate(99.139499, 37.810602)"><g/></g></g><g fill="#000000" fill-opacity="1"><g transform="translate(115.904413, 37.810602)"><g><path d="M 27.1875 -34.421875 L 27.1875 -30.53125 L 15.6875 -30.53125 L 15.6875 0 L 11.609375 0 L 11.609375 -30.53125 L 0 -30.53125 L 0 -34.421875 Z M 27.1875 -34.421875 "/></g></g></g><g fill="#000000" fill-opacity="1"><g transform="translate(145.106963, 37.810602)"><g><path d="M 3.390625 0 L 3.390625 -34.421875 L 24.59375 -34.421875 L 24.59375 -30.53125 L 7.46875 -30.53125 L 7.46875 -19.28125 L 22.671875 -19.28125 L 22.671875 -15.390625 L 7.46875 -15.390625 L 7.46875 -3.890625 L 25.28125 -3.890625 L 25.28125 0 Z M 3.390625 0 "/></g></g></g><g fill="#000000" fill-opacity="1"><g transform="translate(176.669213, 37.810602)"><g><path d="M 27.34375 -5.3125 L 29.546875 -2.0625 C 28.234375 -1.3125 26.832031 -0.710938 25.34375 -0.265625 C 23.851562 0.171875 22.273438 0.390625 20.609375 0.390625 C 18.179688 0.390625 15.898438 -0.0664062 13.765625 -0.984375 C 11.640625 -1.898438 9.78125 -3.148438 8.1875 -4.734375 C 6.59375 -6.328125 5.335938 -8.1875 4.421875 -10.3125 C 3.503906 -12.445312 3.046875 -14.726562 3.046875 -17.15625 C 3.046875 -19.582031 3.503906 -21.867188 4.421875 -24.015625 C 5.335938 -26.160156 6.59375 -28.03125 8.1875 -29.625 C 9.78125 -31.21875 11.640625 -32.476562 13.765625 -33.40625 C 15.898438 -34.34375 18.179688 -34.8125 20.609375 -34.8125 C 22.273438 -34.8125 23.851562 -34.597656 25.34375 -34.171875 C 26.832031 -33.742188 28.25 -33.140625 29.59375 -32.359375 C 29.238281 -31.796875 28.863281 -31.242188 28.46875 -30.703125 C 28.070312 -30.160156 27.695312 -29.613281 27.34375 -29.0625 C 26.320312 -29.65625 25.253906 -30.113281 24.140625 -30.4375 C 23.023438 -30.757812 21.847656 -30.921875 20.609375 -30.921875 C 18.734375 -30.921875 16.984375 -30.5625 15.359375 -29.84375 C 13.742188 -29.125 12.320312 -28.132812 11.09375 -26.875 C 9.863281 -25.613281 8.894531 -24.144531 8.1875 -22.46875 C 7.476562 -20.800781 7.125 -19.03125 7.125 -17.15625 C 7.125 -15.289062 7.476562 -13.519531 8.1875 -11.84375 C 8.894531 -10.175781 9.863281 -8.726562 11.09375 -7.5 C 12.320312 -6.269531 13.742188 -5.289062 15.359375 -4.5625 C 16.984375 -3.84375 18.734375 -3.484375 20.609375 -3.484375 C 23.023438 -3.484375 25.269531 -4.09375 27.34375 -5.3125 Z M 27.34375 -5.3125 "/></g></g></g><g fill="#000000" fill-opacity="1"><g transform="translate(211.623545, 37.810602)"><g><path d="M 3.828125 0 L 3.828125 -34.421875 L 7.921875 -34.421875 L 7.921875 -19.28125 L 26.5 -19.28125 L 26.5 -34.421875 L 30.578125 -34.421875 L 30.578125 0 L 26.5 0 L 26.5 -15.390625 L 7.921875 -15.390625 L 7.921875 0 Z M 3.828125 0 "/></g></g></g><g fill="#000000" fill-opacity="1"><g transform="translate(248.052725, 37.810602)"><g/></g></g><g fill="#000000" fill-opacity="1"><g transform="translate(264.81764, 37.810602)"><g><path d="M 22.078125 -31.03125 C 21.679688 -30.539062 21.296875 -30.046875 20.921875 -29.546875 C 20.546875 -29.054688 20.160156 -28.566406 19.765625 -28.078125 C 19.503906 -28.335938 19.160156 -28.625 18.734375 -28.9375 C 18.304688 -29.25 17.820312 -29.535156 17.28125 -29.796875 C 16.738281 -30.054688 16.128906 -30.273438 15.453125 -30.453125 C 14.785156 -30.640625 14.078125 -30.734375 13.328125 -30.734375 C 11.421875 -30.734375 10.007812 -30.191406 9.09375 -29.109375 C 8.175781 -28.023438 7.71875 -26.75 7.71875 -25.28125 C 7.71875 -24.457031 7.875 -23.765625 8.1875 -23.203125 C 8.5 -22.648438 8.90625 -22.1875 9.40625 -21.8125 C 9.914062 -21.4375 10.488281 -21.113281 11.125 -20.84375 C 11.769531 -20.582031 12.4375 -20.335938 13.125 -20.109375 C 14.207031 -19.710938 15.367188 -19.242188 16.609375 -18.703125 C 17.859375 -18.171875 19.015625 -17.484375 20.078125 -16.640625 C 21.148438 -15.804688 22.035156 -14.78125 22.734375 -13.5625 C 23.441406 -12.351562 23.796875 -10.894531 23.796875 -9.1875 C 23.796875 -7.71875 23.523438 -6.390625 22.984375 -5.203125 C 22.441406 -4.023438 21.703125 -3.019531 20.765625 -2.1875 C 19.835938 -1.351562 18.75 -0.710938 17.5 -0.265625 C 16.257812 0.171875 14.953125 0.390625 13.578125 0.390625 C 12.328125 0.390625 11.109375 0.21875 9.921875 -0.125 C 8.742188 -0.46875 7.664062 -0.910156 6.6875 -1.453125 C 5.707031 -1.992188 4.832031 -2.59375 4.0625 -3.25 C 3.289062 -3.90625 2.691406 -4.5625 2.265625 -5.21875 L 4.8125 -7.765625 C 5.238281 -7.304688 5.75 -6.820312 6.34375 -6.3125 C 6.9375 -5.8125 7.578125 -5.347656 8.265625 -4.921875 C 8.953125 -4.492188 9.703125 -4.144531 10.515625 -3.875 C 11.335938 -3.613281 12.222656 -3.484375 13.171875 -3.484375 C 14.023438 -3.484375 14.84375 -3.609375 15.625 -3.859375 C 16.414062 -4.109375 17.113281 -4.46875 17.71875 -4.9375 C 18.332031 -5.414062 18.816406 -6.015625 19.171875 -6.734375 C 19.535156 -7.453125 19.71875 -8.289062 19.71875 -9.25 C 19.71875 -10.5625 19.394531 -11.625 18.75 -12.4375 C 18.113281 -13.257812 17.328125 -13.941406 16.390625 -14.484375 C 15.460938 -15.023438 14.488281 -15.457031 13.46875 -15.78125 C 12.457031 -16.113281 11.570312 -16.425781 10.8125 -16.71875 C 10.226562 -16.945312 9.523438 -17.257812 8.703125 -17.65625 C 7.878906 -18.050781 7.097656 -18.582031 6.359375 -19.25 C 5.628906 -19.925781 5 -20.765625 4.46875 -21.765625 C 3.945312 -22.765625 3.671875 -23.984375 3.640625 -25.421875 C 3.609375 -26.503906 3.753906 -27.585938 4.078125 -28.671875 C 4.410156 -29.753906 4.953125 -30.734375 5.703125 -31.609375 C 6.453125 -32.492188 7.453125 -33.210938 8.703125 -33.765625 C 9.953125 -34.328125 11.476562 -34.609375 13.28125 -34.609375 C 14.59375 -34.609375 15.953125 -34.378906 17.359375 -33.921875 C 18.765625 -33.460938 20.335938 -32.5 22.078125 -31.03125 Z M 22.078125 -31.03125 "/></g></g></g><g fill="#000000" fill-opacity="1"><g transform="translate(294.511792, 37.810602)"><g><path d="M 6.9375 -19.28125 L 11.21875 -19.28125 C 12.65625 -19.28125 13.835938 -19.46875 14.765625 -19.84375 C 15.703125 -20.21875 16.445312 -20.679688 17 -21.234375 C 17.5625 -21.796875 17.957031 -22.421875 18.1875 -23.109375 C 18.414062 -23.796875 18.53125 -24.453125 18.53125 -25.078125 C 18.53125 -25.796875 18.34375 -26.488281 17.96875 -27.15625 C 17.59375 -27.832031 17.082031 -28.425781 16.4375 -28.9375 C 15.800781 -29.445312 15.03125 -29.847656 14.125 -30.140625 C 13.226562 -30.429688 12.273438 -30.578125 11.265625 -30.578125 L 6.9375 -30.578125 Z M 2.859375 0 L 2.859375 -34.421875 L 10.96875 -34.421875 C 12.082031 -34.421875 13.316406 -34.25 14.671875 -33.90625 C 16.035156 -33.5625 17.304688 -33.007812 18.484375 -32.25 C 19.671875 -31.5 20.65625 -30.53125 21.4375 -29.34375 C 22.226562 -28.164062 22.625 -26.742188 22.625 -25.078125 C 22.625 -22.097656 21.738281 -19.726562 19.96875 -17.96875 C 18.195312 -16.21875 15.640625 -15.34375 12.296875 -15.34375 L 6.9375 -15.34375 L 6.9375 0 Z M 2.859375 0 "/></g></g></g><g fill="#000000" fill-opacity="1"><g transform="translate(320.56806, 37.810602)"><g><path d="M 18.6875 -25.328125 L 18.25 -26.953125 C 17.78125 -25.304688 17.203125 -23.710938 16.515625 -22.171875 C 15.828125 -20.628906 15.15625 -19.070312 14.5 -17.5 L 21.984375 -17.5 C 21.421875 -18.8125 20.867188 -20.113281 20.328125 -21.40625 C 19.785156 -22.707031 19.238281 -24.015625 18.6875 -25.328125 Z M 33.484375 0 L 29.40625 0 C 28.457031 -2.257812 27.5 -4.53125 26.53125 -6.8125 C 25.5625 -9.09375 24.601562 -11.363281 23.65625 -13.625 L 12.828125 -13.625 C 11.878906 -11.363281 10.921875 -9.09375 9.953125 -6.8125 C 8.984375 -4.53125 8.023438 -2.257812 7.078125 0 L 3 0 C 5.550781 -6.03125 8.085938 -12.03125 10.609375 -18 C 13.140625 -23.96875 15.6875 -29.96875 18.25 -36 C 20.800781 -29.96875 23.335938 -23.96875 25.859375 -18 C 28.390625 -12.03125 30.929688 -6.03125 33.484375 0 Z M 33.484375 0 "/></g></g></g><g fill="#000000" fill-opacity="1"><g transform="translate(358.963651, 37.810602)"><g><path d="M 27.34375 -5.3125 L 29.546875 -2.0625 C 28.234375 -1.3125 26.832031 -0.710938 25.34375 -0.265625 C 23.851562 0.171875 22.273438 0.390625 20.609375 0.390625 C 18.179688 0.390625 15.898438 -0.0664062 13.765625 -0.984375 C 11.640625 -1.898438 9.78125 -3.148438 8.1875 -4.734375 C 6.59375 -6.328125 5.335938 -8.1875 4.421875 -10.3125 C 3.503906 -12.445312 3.046875 -14.726562 3.046875 -17.15625 C 3.046875 -19.582031 3.503906 -21.867188 4.421875 -24.015625 C 5.335938 -26.160156 6.59375 -28.03125 8.1875 -29.625 C 9.78125 -31.21875 11.640625 -32.476562 13.765625 -33.40625 C 15.898438 -34.34375 18.179688 -34.8125 20.609375 -34.8125 C 22.273438 -34.8125 23.851562 -34.597656 25.34375 -34.171875 C 26.832031 -33.742188 28.25 -33.140625 29.59375 -32.359375 C 29.238281 -31.796875 28.863281 -31.242188 28.46875 -30.703125 C 28.070312 -30.160156 27.695312 -29.613281 27.34375 -29.0625 C 26.320312 -29.65625 25.253906 -30.113281 24.140625 -30.4375 C 23.023438 -30.757812 21.847656 -30.921875 20.609375 -30.921875 C 18.734375 -30.921875 16.984375 -30.5625 15.359375 -29.84375 C 13.742188 -29.125 12.320312 -28.132812 11.09375 -26.875 C 9.863281 -25.613281 8.894531 -24.144531 8.1875 -22.46875 C 7.476562 -20.800781 7.125 -19.03125 7.125 -17.15625 C 7.125 -15.289062 7.476562 -13.519531 8.1875 -11.84375 C 8.894531 -10.175781 9.863281 -8.726562 11.09375 -7.5 C 12.320312 -6.269531 13.742188 -5.289062 15.359375 -4.5625 C 16.984375 -3.84375 18.734375 -3.484375 20.609375 -3.484375 C 23.023438 -3.484375 25.269531 -4.09375 27.34375 -5.3125 Z M 27.34375 -5.3125 "/></g></g></g><g fill="#000000" fill-opacity="1"><g transform="translate(393.917983, 37.810602)"><g><path d="M 3.390625 0 L 3.390625 -34.421875 L 24.59375 -34.421875 L 24.59375 -30.53125 L 7.46875 -30.53125 L 7.46875 -19.28125 L 22.671875 -19.28125 L 22.671875 -15.390625 L 7.46875 -15.390625 L 7.46875 -3.890625 L 25.28125 -3.890625 L 25.28125 0 Z M 3.390625 0 "/></g></g></g><g fill="#000000" fill-opacity="1"><g transform="translate(19.22596, 69.484536)"><g><path d="M 13.671875 -2.65625 L 14.765625 -1.03125 C 14.109375 -0.65625 13.40625 -0.351562 12.65625 -0.125 C 11.914062 0.09375 11.128906 0.203125 10.296875 0.203125 C 9.085938 0.203125 7.945312 -0.0234375 6.875 -0.484375 C 5.8125 -0.953125 4.882812 -1.582031 4.09375 -2.375 C 3.300781 -3.164062 2.675781 -4.09375 2.21875 -5.15625 C 1.757812 -6.226562 1.53125 -7.367188 1.53125 -8.578125 C 1.53125 -9.785156 1.757812 -10.925781 2.21875 -12 C 2.675781 -13.070312 3.300781 -14.003906 4.09375 -14.796875 C 4.882812 -15.597656 5.8125 -16.234375 6.875 -16.703125 C 7.945312 -17.171875 9.085938 -17.40625 10.296875 -17.40625 C 11.128906 -17.40625 11.914062 -17.296875 12.65625 -17.078125 C 13.40625 -16.867188 14.117188 -16.566406 14.796875 -16.171875 C 14.617188 -15.890625 14.429688 -15.613281 14.234375 -15.34375 C 14.035156 -15.070312 13.847656 -14.800781 13.671875 -14.53125 C 13.160156 -14.820312 12.625 -15.046875 12.0625 -15.203125 C 11.507812 -15.367188 10.921875 -15.453125 10.296875 -15.453125 C 9.359375 -15.453125 8.484375 -15.269531 7.671875 -14.90625 C 6.867188 -14.550781 6.160156 -14.054688 5.546875 -13.421875 C 4.929688 -12.796875 4.445312 -12.066406 4.09375 -11.234375 C 3.738281 -10.398438 3.5625 -9.515625 3.5625 -8.578125 C 3.5625 -7.640625 3.738281 -6.753906 4.09375 -5.921875 C 4.445312 -5.085938 4.929688 -4.363281 5.546875 -3.75 C 6.160156 -3.132812 6.867188 -2.644531 7.671875 -2.28125 C 8.484375 -1.925781 9.359375 -1.75 10.296875 -1.75 C 11.503906 -1.75 12.628906 -2.050781 13.671875 -2.65625 Z M 13.671875 -2.65625 "/></g></g></g><g fill="#000000" fill-opacity="1"><g transform="translate(36.675477, 69.484536)"><g><path d="M 1.53125 -8.578125 C 1.53125 -9.773438 1.757812 -10.910156 2.21875 -11.984375 C 2.675781 -13.054688 3.300781 -13.992188 4.09375 -14.796875 C 4.882812 -15.597656 5.8125 -16.234375 6.875 -16.703125 C 7.945312 -17.171875 9.085938 -17.40625 10.296875 -17.40625 C 11.492188 -17.40625 12.628906 -17.171875 13.703125 -16.703125 C 14.773438 -16.234375 15.710938 -15.597656 16.515625 -14.796875 C 17.316406 -13.992188 17.953125 -13.054688 18.421875 -11.984375 C 18.890625 -10.910156 19.125 -9.773438 19.125 -8.578125 C 19.125 -7.367188 18.890625 -6.226562 18.421875 -5.15625 C 17.953125 -4.09375 17.316406 -3.164062 16.515625 -2.375 C 15.710938 -1.582031 14.773438 -0.953125 13.703125 -0.484375 C 12.628906 -0.0234375 11.492188 0.203125 10.296875 0.203125 C 9.085938 0.203125 7.945312 -0.0234375 6.875 -0.484375 C 5.8125 -0.953125 4.882812 -1.582031 4.09375 -2.375 C 3.300781 -3.164062 2.675781 -4.09375 2.21875 -5.15625 C 1.757812 -6.226562 1.53125 -7.367188 1.53125 -8.578125 Z M 3.5625 -8.578125 C 3.5625 -7.628906 3.738281 -6.738281 4.09375 -5.90625 C 4.445312 -5.082031 4.929688 -4.363281 5.546875 -3.75 C 6.160156 -3.132812 6.875 -2.644531 7.6875 -2.28125 C 8.507812 -1.925781 9.390625 -1.75 10.328125 -1.75 C 11.253906 -1.75 12.128906 -1.925781 12.953125 -2.28125 C 13.773438 -2.644531 14.492188 -3.132812 15.109375 -3.75 C 15.722656 -4.363281 16.203125 -5.082031 16.546875 -5.90625 C 16.898438 -6.738281 17.078125 -7.628906 17.078125 -8.578125 C 17.078125 -9.523438 16.898438 -10.410156 16.546875 -11.234375 C 16.203125 -12.066406 15.722656 -12.796875 15.109375 -13.421875 C 14.492188 -14.046875 13.773438 -14.535156 12.953125 -14.890625 C 12.128906 -15.253906 11.253906 -15.4375 10.328125 -15.4375 C 9.390625 -15.4375 8.507812 -15.253906 7.6875 -14.890625 C 6.875 -14.535156 6.160156 -14.046875 5.546875 -13.421875 C 4.929688 -12.796875 4.445312 -12.066406 4.09375 -11.234375 C 3.738281 -10.410156 3.5625 -9.523438 3.5625 -8.578125 Z M 3.5625 -8.578125 "/></g></g></g><g fill="#000000" fill-opacity="1"><g transform="translate(58.296649, 69.484536)"><g><path d="M 17.46875 -17.203125 L 17.46875 0.78125 C 15.351562 -1.457031 13.253906 -3.679688 11.171875 -5.890625 C 9.097656 -8.109375 7.003906 -10.335938 4.890625 -12.578125 C 4.804688 -12.691406 4.726562 -12.796875 4.65625 -12.890625 C 4.582031 -12.992188 4.503906 -13.101562 4.421875 -13.21875 C 4.441406 -13.09375 4.453125 -12.960938 4.453125 -12.828125 C 4.460938 -12.703125 4.476562 -12.570312 4.5 -12.4375 L 4.5 0 L 2.453125 0 L 2.453125 -17.984375 C 4.566406 -15.691406 6.664062 -13.421875 8.75 -11.171875 C 10.832031 -8.921875 12.929688 -6.644531 15.046875 -4.34375 C 15.128906 -4.226562 15.207031 -4.125 15.28125 -4.03125 C 15.351562 -3.9375 15.429688 -3.832031 15.515625 -3.71875 C 15.492188 -3.84375 15.476562 -3.96875 15.46875 -4.09375 C 15.457031 -4.226562 15.445312 -4.363281 15.4375 -4.5 L 15.4375 -17.203125 Z M 17.46875 -17.203125 "/></g></g></g><g fill="#000000" fill-opacity="1"><g transform="translate(79.255289, 69.484536)"><g><path d="M 11.03125 -15.515625 C 10.832031 -15.265625 10.640625 -15.015625 10.453125 -14.765625 C 10.265625 -14.523438 10.070312 -14.28125 9.875 -14.03125 C 9.75 -14.164062 9.578125 -14.3125 9.359375 -14.46875 C 9.148438 -14.625 8.910156 -14.765625 8.640625 -14.890625 C 8.367188 -15.023438 8.0625 -15.132812 7.71875 -15.21875 C 7.382812 -15.3125 7.03125 -15.359375 6.65625 -15.359375 C 5.707031 -15.359375 5.003906 -15.085938 4.546875 -14.546875 C 4.085938 -14.003906 3.859375 -13.367188 3.859375 -12.640625 C 3.859375 -12.222656 3.9375 -11.875 4.09375 -11.59375 C 4.25 -11.320312 4.453125 -11.09375 4.703125 -10.90625 C 4.960938 -10.71875 5.25 -10.554688 5.5625 -10.421875 C 5.882812 -10.285156 6.21875 -10.160156 6.5625 -10.046875 C 7.101562 -9.847656 7.679688 -9.613281 8.296875 -9.34375 C 8.921875 -9.082031 9.5 -8.738281 10.03125 -8.3125 C 10.570312 -7.894531 11.015625 -7.382812 11.359375 -6.78125 C 11.710938 -6.175781 11.890625 -5.445312 11.890625 -4.59375 C 11.890625 -3.851562 11.753906 -3.1875 11.484375 -2.59375 C 11.210938 -2.007812 10.84375 -1.507812 10.375 -1.09375 C 9.914062 -0.675781 9.375 -0.351562 8.75 -0.125 C 8.125 0.09375 7.46875 0.203125 6.78125 0.203125 C 6.15625 0.203125 5.546875 0.117188 4.953125 -0.046875 C 4.367188 -0.222656 3.832031 -0.445312 3.34375 -0.71875 C 2.851562 -0.988281 2.414062 -1.285156 2.03125 -1.609375 C 1.644531 -1.941406 1.34375 -2.273438 1.125 -2.609375 L 2.40625 -3.890625 C 2.625 -3.660156 2.878906 -3.414062 3.171875 -3.15625 C 3.460938 -2.90625 3.78125 -2.671875 4.125 -2.453125 C 4.46875 -2.242188 4.84375 -2.070312 5.25 -1.9375 C 5.664062 -1.8125 6.113281 -1.75 6.59375 -1.75 C 7.007812 -1.75 7.414062 -1.804688 7.8125 -1.921875 C 8.207031 -2.046875 8.554688 -2.226562 8.859375 -2.46875 C 9.160156 -2.707031 9.398438 -3.003906 9.578125 -3.359375 C 9.765625 -3.722656 9.859375 -4.144531 9.859375 -4.625 C 9.859375 -5.28125 9.695312 -5.8125 9.375 -6.21875 C 9.050781 -6.625 8.65625 -6.960938 8.1875 -7.234375 C 7.726562 -7.503906 7.242188 -7.722656 6.734375 -7.890625 C 6.222656 -8.054688 5.78125 -8.210938 5.40625 -8.359375 C 5.113281 -8.472656 4.757812 -8.628906 4.34375 -8.828125 C 3.9375 -9.023438 3.546875 -9.289062 3.171875 -9.625 C 2.804688 -9.957031 2.492188 -10.375 2.234375 -10.875 C 1.972656 -11.375 1.832031 -11.984375 1.8125 -12.703125 C 1.800781 -13.242188 1.875 -13.785156 2.03125 -14.328125 C 2.195312 -14.867188 2.46875 -15.359375 2.84375 -15.796875 C 3.226562 -16.242188 3.726562 -16.601562 4.34375 -16.875 C 4.96875 -17.15625 5.734375 -17.296875 6.640625 -17.296875 C 7.296875 -17.296875 7.972656 -17.179688 8.671875 -16.953125 C 9.378906 -16.722656 10.164062 -16.242188 11.03125 -15.515625 Z M 11.03125 -15.515625 "/></g></g></g><g fill="#000000" fill-opacity="1"><g transform="translate(94.079126, 69.484536)"><g><path d="M 8.0625 0.203125 C 7.175781 0.203125 6.351562 0.078125 5.59375 -0.171875 C 4.84375 -0.421875 4.1875 -0.785156 3.625 -1.265625 C 3.070312 -1.742188 2.640625 -2.34375 2.328125 -3.0625 C 2.023438 -3.789062 1.875 -4.617188 1.875 -5.546875 L 1.875 -17.203125 L 3.90625 -17.203125 L 3.90625 -5.625 C 3.90625 -5 4.003906 -4.445312 4.203125 -3.96875 C 4.410156 -3.488281 4.695312 -3.082031 5.0625 -2.75 C 5.4375 -2.425781 5.878906 -2.175781 6.390625 -2 C 6.898438 -1.832031 7.457031 -1.75 8.0625 -1.75 C 8.664062 -1.75 9.222656 -1.832031 9.734375 -2 C 10.242188 -2.175781 10.679688 -2.425781 11.046875 -2.75 C 11.410156 -3.082031 11.695312 -3.488281 11.90625 -3.96875 C 12.125 -4.445312 12.234375 -5 12.234375 -5.625 L 12.234375 -17.203125 L 14.28125 -17.203125 L 14.28125 -5.546875 C 14.28125 -4.617188 14.117188 -3.789062 13.796875 -3.0625 C 13.484375 -2.34375 13.046875 -1.742188 12.484375 -1.265625 C 11.929688 -0.785156 11.273438 -0.421875 10.515625 -0.171875 C 9.765625 0.078125 8.945312 0.203125 8.0625 0.203125 Z M 8.0625 0.203125 "/></g></g></g><g fill="#000000" fill-opacity="1"><g transform="translate(111.086942, 69.484536)"><g><path d="M 1.703125 0 L 1.703125 -17.203125 L 3.734375 -17.203125 L 3.734375 -1.9375 L 12.640625 -1.9375 L 12.640625 0 Z M 1.703125 0 "/></g></g></g><g fill="#000000" fill-opacity="1"><g transform="translate(126.646974, 69.484536)"><g><path d="M 13.59375 -17.203125 L 13.59375 -15.265625 L 7.84375 -15.265625 L 7.84375 0 L 5.796875 0 L 5.796875 -15.265625 L 0 -15.265625 L 0 -17.203125 Z M 13.59375 -17.203125 "/></g></g></g><g fill="#000000" fill-opacity="1"><g transform="translate(141.225453, 69.484536)"><g><path d="M 9.34375 -12.65625 L 9.125 -13.46875 C 8.894531 -12.644531 8.601562 -11.847656 8.25 -11.078125 C 7.90625 -10.304688 7.570312 -9.53125 7.25 -8.75 L 10.984375 -8.75 C 10.703125 -9.40625 10.425781 -10.054688 10.15625 -10.703125 C 9.882812 -11.347656 9.613281 -12 9.34375 -12.65625 Z M 16.734375 0 L 14.703125 0 C 14.222656 -1.132812 13.738281 -2.269531 13.25 -3.40625 C 12.769531 -4.539062 12.296875 -5.675781 11.828125 -6.8125 L 6.421875 -6.8125 C 5.941406 -5.675781 5.457031 -4.539062 4.96875 -3.40625 C 4.488281 -2.269531 4.015625 -1.132812 3.546875 0 L 1.5 0 C 2.78125 -3.007812 4.050781 -6.003906 5.3125 -8.984375 C 6.570312 -11.972656 7.84375 -14.972656 9.125 -17.984375 C 10.394531 -14.972656 11.660156 -11.972656 12.921875 -8.984375 C 14.191406 -6.003906 15.460938 -3.007812 16.734375 0 Z M 16.734375 0 "/></g></g></g><g fill="#000000" fill-opacity="1"><g transform="translate(160.39272, 69.484536)"><g><path d="M 17.46875 -17.203125 L 17.46875 0.78125 C 15.351562 -1.457031 13.253906 -3.679688 11.171875 -5.890625 C 9.097656 -8.109375 7.003906 -10.335938 4.890625 -12.578125 C 4.804688 -12.691406 4.726562 -12.796875 4.65625 -12.890625 C 4.582031 -12.992188 4.503906 -13.101562 4.421875 -13.21875 C 4.441406 -13.09375 4.453125 -12.960938 4.453125 -12.828125 C 4.460938 -12.703125 4.476562 -12.570312 4.5 -12.4375 L 4.5 0 L 2.453125 0 L 2.453125 -17.984375 C 4.566406 -15.691406 6.664062 -13.421875 8.75 -11.171875 C 10.832031 -8.921875 12.929688 -6.644531 15.046875 -4.34375 C 15.128906 -4.226562 15.207031 -4.125 15.28125 -4.03125 C 15.351562 -3.9375 15.429688 -3.832031 15.515625 -3.71875 C 15.492188 -3.84375 15.476562 -3.96875 15.46875 -4.09375 C 15.457031 -4.226562 15.445312 -4.363281 15.4375 -4.5 L 15.4375 -17.203125 Z M 17.46875 -17.203125 "/></g></g></g><g fill="#000000" fill-opacity="1"><g transform="translate(181.35136, 69.484536)"><g><path d="M 13.671875 -2.65625 L 14.765625 -1.03125 C 14.109375 -0.65625 13.40625 -0.351562 12.65625 -0.125 C 11.914062 0.09375 11.128906 0.203125 10.296875 0.203125 C 9.085938 0.203125 7.945312 -0.0234375 6.875 -0.484375 C 5.8125 -0.953125 4.882812 -1.582031 4.09375 -2.375 C 3.300781 -3.164062 2.675781 -4.09375 2.21875 -5.15625 C 1.757812 -6.226562 1.53125 -7.367188 1.53125 -8.578125 C 1.53125 -9.785156 1.757812 -10.925781 2.21875 -12 C 2.675781 -13.070312 3.300781 -14.003906 4.09375 -14.796875 C 4.882812 -15.597656 5.8125 -16.234375 6.875 -16.703125 C 7.945312 -17.171875 9.085938 -17.40625 10.296875 -17.40625 C 11.128906 -17.40625 11.914062 -17.296875 12.65625 -17.078125 C 13.40625 -16.867188 14.117188 -16.566406 14.796875 -16.171875 C 14.617188 -15.890625 14.429688 -15.613281 14.234375 -15.34375 C 14.035156 -15.070312 13.847656 -14.800781 13.671875 -14.53125 C 13.160156 -14.820312 12.625 -15.046875 12.0625 -15.203125 C 11.507812 -15.367188 10.921875 -15.453125 10.296875 -15.453125 C 9.359375 -15.453125 8.484375 -15.269531 7.671875 -14.90625 C 6.867188 -14.550781 6.160156 -14.054688 5.546875 -13.421875 C 4.929688 -12.796875 4.445312 -12.066406 4.09375 -11.234375 C 3.738281 -10.398438 3.5625 -9.515625 3.5625 -8.578125 C 3.5625 -7.640625 3.738281 -6.753906 4.09375 -5.921875 C 4.445312 -5.085938 4.929688 -4.363281 5.546875 -3.75 C 6.160156 -3.132812 6.867188 -2.644531 7.671875 -2.28125 C 8.484375 -1.925781 9.359375 -1.75 10.296875 -1.75 C 11.503906 -1.75 12.628906 -2.050781 13.671875 -2.65625 Z M 13.671875 -2.65625 "/></g></g></g><g fill="#000000" fill-opacity="1"><g transform="translate(198.800877, 69.484536)"><g><path d="M 9.0625 -6.609375 L 9.0625 0 L 6.5625 0 L 6.5625 -6.640625 C 5.507812 -8.410156 4.460938 -10.171875 3.421875 -11.921875 C 2.390625 -13.671875 1.347656 -15.429688 0.296875 -17.203125 L 2.796875 -17.203125 C 3.585938 -15.878906 4.375 -14.554688 5.15625 -13.234375 C 5.945312 -11.910156 6.734375 -10.585938 7.515625 -9.265625 C 7.566406 -9.128906 7.613281 -9 7.65625 -8.875 C 7.695312 -8.757812 7.742188 -8.632812 7.796875 -8.5 L 7.8125 -8.5 C 7.863281 -8.632812 7.910156 -8.757812 7.953125 -8.875 C 8.003906 -9 8.054688 -9.128906 8.109375 -9.265625 C 8.898438 -10.585938 9.679688 -11.910156 10.453125 -13.234375 C 11.234375 -14.554688 12.019531 -15.878906 12.8125 -17.203125 L 15.3125 -17.203125 C 14.257812 -15.421875 13.21875 -13.65625 12.1875 -11.90625 C 11.15625 -10.164062 10.113281 -8.398438 9.0625 -6.609375 Z M 9.0625 -6.609375 "/></g></g></g><g fill="#000000" fill-opacity="1"><g transform="translate(215.465143, 69.484536)"><g/></g></g><g fill="#000000" fill-opacity="1"><g transform="translate(223.835195, 69.484536)"><g><path d="M 9.34375 -12.65625 L 9.125 -13.46875 C 8.894531 -12.644531 8.601562 -11.847656 8.25 -11.078125 C 7.90625 -10.304688 7.570312 -9.53125 7.25 -8.75 L 10.984375 -8.75 C 10.703125 -9.40625 10.425781 -10.054688 10.15625 -10.703125 C 9.882812 -11.347656 9.613281 -12 9.34375 -12.65625 Z M 16.734375 0 L 14.703125 0 C 14.222656 -1.132812 13.738281 -2.269531 13.25 -3.40625 C 12.769531 -4.539062 12.296875 -5.675781 11.828125 -6.8125 L 6.421875 -6.8125 C 5.941406 -5.675781 5.457031 -4.539062 4.96875 -3.40625 C 4.488281 -2.269531 4.015625 -1.132812 3.546875 0 L 1.5 0 C 2.78125 -3.007812 4.050781 -6.003906 5.3125 -8.984375 C 6.570312 -11.972656 7.84375 -14.972656 9.125 -17.984375 C 10.394531 -14.972656 11.660156 -11.972656 12.921875 -8.984375 C 14.191406 -6.003906 15.460938 -3.007812 16.734375 0 Z M 16.734375 0 "/></g></g></g><g fill="#000000" fill-opacity="1"><g transform="translate(243.002461, 69.484536)"><g><path d="M 17.46875 -17.203125 L 17.46875 0.78125 C 15.351562 -1.457031 13.253906 -3.679688 11.171875 -5.890625 C 9.097656 -8.109375 7.003906 -10.335938 4.890625 -12.578125 C 4.804688 -12.691406 4.726562 -12.796875 4.65625 -12.890625 C 4.582031 -12.992188 4.503906 -13.101562 4.421875 -13.21875 C 4.441406 -13.09375 4.453125 -12.960938 4.453125 -12.828125 C 4.460938 -12.703125 4.476562 -12.570312 4.5 -12.4375 L 4.5 0 L 2.453125 0 L 2.453125 -17.984375 C 4.566406 -15.691406 6.664062 -13.421875 8.75 -11.171875 C 10.832031 -8.921875 12.929688 -6.644531 15.046875 -4.34375 C 15.128906 -4.226562 15.207031 -4.125 15.28125 -4.03125 C 15.351562 -3.9375 15.429688 -3.832031 15.515625 -3.71875 C 15.492188 -3.84375 15.476562 -3.96875 15.46875 -4.09375 C 15.457031 -4.226562 15.445312 -4.363281 15.4375 -4.5 L 15.4375 -17.203125 Z M 17.46875 -17.203125 "/></g></g></g><g fill="#000000" fill-opacity="1"><g transform="translate(263.961101, 69.484536)"><g><path d="M 1.46875 -17.203125 L 5.484375 -17.203125 C 6.660156 -17.203125 7.769531 -17 8.8125 -16.59375 C 9.863281 -16.195312 10.78125 -15.617188 11.5625 -14.859375 C 12.351562 -14.109375 12.976562 -13.203125 13.4375 -12.140625 C 13.894531 -11.085938 14.125 -9.898438 14.125 -8.578125 C 14.125 -7.609375 13.957031 -6.613281 13.625 -5.59375 C 13.289062 -4.582031 12.742188 -3.660156 11.984375 -2.828125 C 11.234375 -2.003906 10.253906 -1.328125 9.046875 -0.796875 C 7.847656 -0.265625 6.378906 0 4.640625 0 L 1.46875 0 Z M 3.515625 -15.265625 L 3.515625 -1.96875 L 5.234375 -1.96875 C 6.203125 -1.96875 7.101562 -2.125 7.9375 -2.4375 C 8.769531 -2.75 9.492188 -3.191406 10.109375 -3.765625 C 10.722656 -4.347656 11.207031 -5.046875 11.5625 -5.859375 C 11.914062 -6.671875 12.09375 -7.585938 12.09375 -8.609375 C 12.09375 -9.617188 11.914062 -10.53125 11.5625 -11.34375 C 11.207031 -12.164062 10.722656 -12.867188 10.109375 -13.453125 C 9.492188 -14.035156 8.769531 -14.484375 7.9375 -14.796875 C 7.101562 -15.109375 6.203125 -15.265625 5.234375 -15.265625 Z M 3.515625 -15.265625 "/></g></g></g><g fill="#000000" fill-opacity="1"><g transform="translate(280.968917, 69.484536)"><g/></g></g><g fill="#000000" fill-opacity="1"><g transform="translate(289.338969, 69.484536)"><g><path d="M 11.03125 -15.515625 C 10.832031 -15.265625 10.640625 -15.015625 10.453125 -14.765625 C 10.265625 -14.523438 10.070312 -14.28125 9.875 -14.03125 C 9.75 -14.164062 9.578125 -14.3125 9.359375 -14.46875 C 9.148438 -14.625 8.910156 -14.765625 8.640625 -14.890625 C 8.367188 -15.023438 8.0625 -15.132812 7.71875 -15.21875 C 7.382812 -15.3125 7.03125 -15.359375 6.65625 -15.359375 C 5.707031 -15.359375 5.003906 -15.085938 4.546875 -14.546875 C 4.085938 -14.003906 3.859375 -13.367188 3.859375 -12.640625 C 3.859375 -12.222656 3.9375 -11.875 4.09375 -11.59375 C 4.25 -11.320312 4.453125 -11.09375 4.703125 -10.90625 C 4.960938 -10.71875 5.25 -10.554688 5.5625 -10.421875 C 5.882812 -10.285156 6.21875 -10.160156 6.5625 -10.046875 C 7.101562 -9.847656 7.679688 -9.613281 8.296875 -9.34375 C 8.921875 -9.082031 9.5 -8.738281 10.03125 -8.3125 C 10.570312 -7.894531 11.015625 -7.382812 11.359375 -6.78125 C 11.710938 -6.175781 11.890625 -5.445312 11.890625 -4.59375 C 11.890625 -3.851562 11.753906 -3.1875 11.484375 -2.59375 C 11.210938 -2.007812 10.84375 -1.507812 10.375 -1.09375 C 9.914062 -0.675781 9.375 -0.351562 8.75 -0.125 C 8.125 0.09375 7.46875 0.203125 6.78125 0.203125 C 6.15625 0.203125 5.546875 0.117188 4.953125 -0.046875 C 4.367188 -0.222656 3.832031 -0.445312 3.34375 -0.71875 C 2.851562 -0.988281 2.414062 -1.285156 2.03125 -1.609375 C 1.644531 -1.941406 1.34375 -2.273438 1.125 -2.609375 L 2.40625 -3.890625 C 2.625 -3.660156 2.878906 -3.414062 3.171875 -3.15625 C 3.460938 -2.90625 3.78125 -2.671875 4.125 -2.453125 C 4.46875 -2.242188 4.84375 -2.070312 5.25 -1.9375 C 5.664062 -1.8125 6.113281 -1.75 6.59375 -1.75 C 7.007812 -1.75 7.414062 -1.804688 7.8125 -1.921875 C 8.207031 -2.046875 8.554688 -2.226562 8.859375 -2.46875 C 9.160156 -2.707031 9.398438 -3.003906 9.578125 -3.359375 C 9.765625 -3.722656 9.859375 -4.144531 9.859375 -4.625 C 9.859375 -5.28125 9.695312 -5.8125 9.375 -6.21875 C 9.050781 -6.625 8.65625 -6.960938 8.1875 -7.234375 C 7.726562 -7.503906 7.242188 -7.722656 6.734375 -7.890625 C 6.222656 -8.054688 5.78125 -8.210938 5.40625 -8.359375 C 5.113281 -8.472656 4.757812 -8.628906 4.34375 -8.828125 C 3.9375 -9.023438 3.546875 -9.289062 3.171875 -9.625 C 2.804688 -9.957031 2.492188 -10.375 2.234375 -10.875 C 1.972656 -11.375 1.832031 -11.984375 1.8125 -12.703125 C 1.800781 -13.242188 1.875 -13.785156 2.03125 -14.328125 C 2.195312 -14.867188 2.46875 -15.359375 2.84375 -15.796875 C 3.226562 -16.242188 3.726562 -16.601562 4.34375 -16.875 C 4.96875 -17.15625 5.734375 -17.296875 6.640625 -17.296875 C 7.296875 -17.296875 7.972656 -17.179688 8.671875 -16.953125 C 9.378906 -16.722656 10.164062 -16.242188 11.03125 -15.515625 Z M 11.03125 -15.515625 "/></g></g></g><g fill="#000000" fill-opacity="1"><g transform="translate(304.162806, 69.484536)"><g><path d="M 1.703125 0 L 1.703125 -17.203125 L 12.28125 -17.203125 L 12.28125 -15.265625 L 3.734375 -15.265625 L 3.734375 -9.640625 L 11.328125 -9.640625 L 11.328125 -7.6875 L 3.734375 -7.6875 L 3.734375 -1.9375 L 12.640625 -1.9375 L 12.640625 0 Z M 1.703125 0 "/></g></g></g><g fill="#000000" fill-opacity="1"><g transform="translate(319.919142, 69.484536)"><g><path d="M 3.46875 -9.640625 L 5.609375 -9.640625 C 6.328125 -9.640625 6.921875 -9.734375 7.390625 -9.921875 C 7.859375 -10.109375 8.226562 -10.335938 8.5 -10.609375 C 8.78125 -10.890625 8.976562 -11.203125 9.09375 -11.546875 C 9.207031 -11.890625 9.265625 -12.21875 9.265625 -12.53125 C 9.265625 -12.894531 9.171875 -13.242188 8.984375 -13.578125 C 8.796875 -13.910156 8.539062 -14.203125 8.21875 -14.453125 C 7.894531 -14.710938 7.507812 -14.914062 7.0625 -15.0625 C 6.613281 -15.207031 6.132812 -15.28125 5.625 -15.28125 L 3.46875 -15.28125 Z M 1.421875 0 L 1.421875 -17.203125 L 5.484375 -17.203125 C 6.035156 -17.203125 6.648438 -17.113281 7.328125 -16.9375 C 8.015625 -16.769531 8.648438 -16.5 9.234375 -16.125 C 9.828125 -15.75 10.320312 -15.265625 10.71875 -14.671875 C 11.113281 -14.078125 11.3125 -13.363281 11.3125 -12.53125 C 11.3125 -11.300781 11.003906 -10.269531 10.390625 -9.4375 C 9.773438 -8.613281 8.875 -8.070312 7.6875 -7.8125 L 11.375 0 L 9.171875 0 L 5.546875 -7.671875 L 3.46875 -7.671875 L 3.46875 0 Z M 1.421875 0 "/></g></g></g><g fill="#000000" fill-opacity="1"><g transform="translate(333.663273, 69.484536)"><g><path d="M 14.53125 -17.203125 L 16.5625 -17.203125 C 15.289062 -14.191406 14.019531 -11.191406 12.75 -8.203125 C 11.488281 -5.222656 10.222656 -2.226562 8.953125 0.78125 C 7.671875 -2.226562 6.398438 -5.222656 5.140625 -8.203125 C 3.878906 -11.191406 2.609375 -14.191406 1.328125 -17.203125 L 3.375 -17.203125 C 4.269531 -15.078125 5.160156 -12.96875 6.046875 -10.875 C 6.929688 -8.78125 7.820312 -6.671875 8.71875 -4.546875 L 8.953125 -3.734375 L 9.171875 -4.546875 C 10.066406 -6.671875 10.957031 -8.78125 11.84375 -10.875 C 12.726562 -12.96875 13.625 -15.078125 14.53125 -17.203125 Z M 14.53125 -17.203125 "/></g></g></g><g fill="#000000" fill-opacity="1"><g transform="translate(352.388839, 69.484536)"><g><path d="M 2.4375 -17.203125 L 4.46875 -17.203125 L 4.46875 0 L 2.4375 0 Z M 2.4375 -17.203125 "/></g></g></g><g fill="#000000" fill-opacity="1"><g transform="translate(360.219038, 69.484536)"><g><path d="M 13.671875 -2.65625 L 14.765625 -1.03125 C 14.109375 -0.65625 13.40625 -0.351562 12.65625 -0.125 C 11.914062 0.09375 11.128906 0.203125 10.296875 0.203125 C 9.085938 0.203125 7.945312 -0.0234375 6.875 -0.484375 C 5.8125 -0.953125 4.882812 -1.582031 4.09375 -2.375 C 3.300781 -3.164062 2.675781 -4.09375 2.21875 -5.15625 C 1.757812 -6.226562 1.53125 -7.367188 1.53125 -8.578125 C 1.53125 -9.785156 1.757812 -10.925781 2.21875 -12 C 2.675781 -13.070312 3.300781 -14.003906 4.09375 -14.796875 C 4.882812 -15.597656 5.8125 -16.234375 6.875 -16.703125 C 7.945312 -17.171875 9.085938 -17.40625 10.296875 -17.40625 C 11.128906 -17.40625 11.914062 -17.296875 12.65625 -17.078125 C 13.40625 -16.867188 14.117188 -16.566406 14.796875 -16.171875 C 14.617188 -15.890625 14.429688 -15.613281 14.234375 -15.34375 C 14.035156 -15.070312 13.847656 -14.800781 13.671875 -14.53125 C 13.160156 -14.820312 12.625 -15.046875 12.0625 -15.203125 C 11.507812 -15.367188 10.921875 -15.453125 10.296875 -15.453125 C 9.359375 -15.453125 8.484375 -15.269531 7.671875 -14.90625 C 6.867188 -14.550781 6.160156 -14.054688 5.546875 -13.421875 C 4.929688 -12.796875 4.445312 -12.066406 4.09375 -11.234375 C 3.738281 -10.398438 3.5625 -9.515625 3.5625 -8.578125 C 3.5625 -7.640625 3.738281 -6.753906 4.09375 -5.921875 C 4.445312 -5.085938 4.929688 -4.363281 5.546875 -3.75 C 6.160156 -3.132812 6.867188 -2.644531 7.671875 -2.28125 C 8.484375 -1.925781 9.359375 -1.75 10.296875 -1.75 C 11.503906 -1.75 12.628906 -2.050781 13.671875 -2.65625 Z M 13.671875 -2.65625 "/></g></g></g><g fill="#000000" fill-opacity="1"><g transform="translate(377.668555, 69.484536)"><g><path d="M 1.703125 0 L 1.703125 -17.203125 L 12.28125 -17.203125 L 12.28125 -15.265625 L 3.734375 -15.265625 L 3.734375 -9.640625 L 11.328125 -9.640625 L 11.328125 -7.6875 L 3.734375 -7.6875 L 3.734375 -1.9375 L 12.640625 -1.9375 L 12.640625 0 Z M 1.703125 0 "/></g></g></g><g fill="#000000" fill-opacity="1"><g transform="translate(393.424891, 69.484536)"><g><path d="M 11.03125 -15.515625 C 10.832031 -15.265625 10.640625 -15.015625 10.453125 -14.765625 C 10.265625 -14.523438 10.070312 -14.28125 9.875 -14.03125 C 9.75 -14.164062 9.578125 -14.3125 9.359375 -14.46875 C 9.148438 -14.625 8.910156 -14.765625 8.640625 -14.890625 C 8.367188 -15.023438 8.0625 -15.132812 7.71875 -15.21875 C 7.382812 -15.3125 7.03125 -15.359375 6.65625 -15.359375 C 5.707031 -15.359375 5.003906 -15.085938 4.546875 -14.546875 C 4.085938 -14.003906 3.859375 -13.367188 3.859375 -12.640625 C 3.859375 -12.222656 3.9375 -11.875 4.09375 -11.59375 C 4.25 -11.320312 4.453125 -11.09375 4.703125 -10.90625 C 4.960938 -10.71875 5.25 -10.554688 5.5625 -10.421875 C 5.882812 -10.285156 6.21875 -10.160156 6.5625 -10.046875 C 7.101562 -9.847656 7.679688 -9.613281 8.296875 -9.34375 C 8.921875 -9.082031 9.5 -8.738281 10.03125 -8.3125 C 10.570312 -7.894531 11.015625 -7.382812 11.359375 -6.78125 C 11.710938 -6.175781 11.890625 -5.445312 11.890625 -4.59375 C 11.890625 -3.851562 11.753906 -3.1875 11.484375 -2.59375 C 11.210938 -2.007812 10.84375 -1.507812 10.375 -1.09375 C 9.914062 -0.675781 9.375 -0.351562 8.75 -0.125 C 8.125 0.09375 7.46875 0.203125 6.78125 0.203125 C 6.15625 0.203125 5.546875 0.117188 4.953125 -0.046875 C 4.367188 -0.222656 3.832031 -0.445312 3.34375 -0.71875 C 2.851562 -0.988281 2.414062 -1.285156 2.03125 -1.609375 C 1.644531 -1.941406 1.34375 -2.273438 1.125 -2.609375 L 2.40625 -3.890625 C 2.625 -3.660156 2.878906 -3.414062 3.171875 -3.15625 C 3.460938 -2.90625 3.78125 -2.671875 4.125 -2.453125 C 4.46875 -2.242188 4.84375 -2.070312 5.25 -1.9375 C 5.664062 -1.8125 6.113281 -1.75 6.59375 -1.75 C 7.007812 -1.75 7.414062 -1.804688 7.8125 -1.921875 C 8.207031 -2.046875 8.554688 -2.226562 8.859375 -2.46875 C 9.160156 -2.707031 9.398438 -3.003906 9.578125 -3.359375 C 9.765625 -3.722656 9.859375 -4.144531 9.859375 -4.625 C 9.859375 -5.28125 9.695312 -5.8125 9.375 -6.21875 C 9.050781 -6.625 8.65625 -6.960938 8.1875 -7.234375 C 7.726562 -7.503906 7.242188 -7.722656 6.734375 -7.890625 C 6.222656 -8.054688 5.78125 -8.210938 5.40625 -8.359375 C 5.113281 -8.472656 4.757812 -8.628906 4.34375 -8.828125 C 3.9375 -9.023438 3.546875 -9.289062 3.171875 -9.625 C 2.804688 -9.957031 2.492188 -10.375 2.234375 -10.875 C 1.972656 -11.375 1.832031 -11.984375 1.8125 -12.703125 C 1.800781 -13.242188 1.875 -13.785156 2.03125 -14.328125 C 2.195312 -14.867188 2.46875 -15.359375 2.84375 -15.796875 C 3.226562 -16.242188 3.726562 -16.601562 4.34375 -16.875 C 4.96875 -17.15625 5.734375 -17.296875 6.640625 -17.296875 C 7.296875 -17.296875 7.972656 -17.179688 8.671875 -16.953125 C 9.378906 -16.722656 10.164062 -16.242188 11.03125 -15.515625 Z M 11.03125 -15.515625 "/></g></g></g></g></g><g clip-path="url(#0da7594135)"><path fill="#000000" d="M 90.097656 101.640625 L 92.722656 101.640625 L 92.722656 104.269531 L 90.097656 104.269531 Z M 90.097656 101.640625 " fill-opacity="1" fill-rule="nonzero"/></g><g clip-path="url(#b55fdca8b3)"><path fill="#000000" d="M 4.175781 18.378906 L 6.832031 18.378906 L 6.832031 101.640625 L 4.175781 101.640625 Z M 4.175781 18.378906 " fill-opacity="1" fill-rule="nonzero"/></g><g clip-path="url(#2ac0f835c4)"><path fill="#000000" d="M 4.175781 101.640625 L 6.832031 101.640625 L 6.832031 104.269531 L 4.175781 104.269531 Z M 4.175781 101.640625 " fill-opacity="1" fill-rule="nonzero"/></g><g clip-path="url(#91f68db95b)"><path fill="#000000" d="M 90.097656 18.378906 L 92.722656 18.378906 L 92.722656 101.640625 L 90.097656 101.640625 Z M 90.097656 18.378906 " fill-opacity="1" fill-rule="nonzero"/></g><g clip-path="url(#b3e5a846b6)"><path fill="#000000" d="M 6.832031 101.640625 L 90.097656 101.640625 L 90.097656 104.269531 L 6.832031 104.269531 Z M 6.832031 101.640625 " fill-opacity="1" fill-rule="nonzero"/></g><g clip-path="url(#53af248a48)"><path fill="#000000" d="M 90.097656 15.722656 L 92.722656 15.722656 L 92.722656 18.378906 L 90.097656 18.378906 Z M 90.097656 15.722656 " fill-opacity="1" fill-rule="nonzero"/></g><g clip-path="url(#ca42d1f318)"><path fill="#000000" d="M 4.175781 15.722656 L 6.832031 15.722656 L 6.832031 18.378906 L 4.175781 18.378906 Z M 4.175781 15.722656 " fill-opacity="1" fill-rule="nonzero"/></g><g clip-path="url(#1cfd4458b3)"><path fill="#000000" d="M 6.832031 15.722656 L 90.097656 15.722656 L 90.097656 18.378906 L 6.832031 18.378906 Z M 6.832031 15.722656 " fill-opacity="1" fill-rule="nonzero"/></g><g transform="matrix(1, 0, 0, 1, 10, 19)"><g clip-path="url(#49f3ac2922)"><g fill="#000000" fill-opacity="1"><g transform="translate(3.03027, 40.154929)"><g><path d="M 29.453125 -37.28125 L 29.453125 -33.078125 L 16.984375 -33.078125 L 16.984375 0 L 12.578125 0 L 12.578125 -33.078125 L 0 -33.078125 L 0 -37.28125 Z M 29.453125 -37.28125 "/></g></g></g></g></g><g transform="matrix(1, 0, 0, 1, 52, 52)"><g clip-path="url(#c7af5baacd)"><g fill="#000000" fill-opacity="1"><g transform="translate(2.125254, 40.07059)"><g><path d="M 23.921875 -33.609375 C 23.492188 -33.078125 23.070312 -32.546875 22.65625 -32.015625 C 22.25 -31.484375 21.832031 -30.953125 21.40625 -30.421875 C 21.125 -30.703125 20.753906 -31.007812 20.296875 -31.34375 C 19.835938 -31.6875 19.3125 -32 18.71875 -32.28125 C 18.132812 -32.5625 17.476562 -32.800781 16.75 -33 C 16.019531 -33.195312 15.25 -33.296875 14.4375 -33.296875 C 12.375 -33.296875 10.84375 -32.707031 9.84375 -31.53125 C 8.851562 -30.363281 8.359375 -28.976562 8.359375 -27.375 C 8.359375 -26.488281 8.523438 -25.742188 8.859375 -25.140625 C 9.203125 -24.535156 9.648438 -24.03125 10.203125 -23.625 C 10.753906 -23.21875 11.375 -22.867188 12.0625 -22.578125 C 12.757812 -22.296875 13.476562 -22.03125 14.21875 -21.78125 C 15.394531 -21.351562 16.65625 -20.847656 18 -20.265625 C 19.351562 -19.679688 20.601562 -18.9375 21.75 -18.03125 C 22.90625 -17.125 23.863281 -16.015625 24.625 -14.703125 C 25.394531 -13.390625 25.78125 -11.804688 25.78125 -9.953125 C 25.78125 -8.359375 25.484375 -6.921875 24.890625 -5.640625 C 24.304688 -4.367188 23.507812 -3.28125 22.5 -2.375 C 21.488281 -1.46875 20.304688 -0.773438 18.953125 -0.296875 C 17.609375 0.179688 16.191406 0.421875 14.703125 0.421875 C 13.347656 0.421875 12.03125 0.238281 10.75 -0.125 C 9.476562 -0.5 8.304688 -0.976562 7.234375 -1.5625 C 6.171875 -2.15625 5.222656 -2.804688 4.390625 -3.515625 C 3.554688 -4.222656 2.910156 -4.929688 2.453125 -5.640625 L 5.21875 -8.421875 C 5.675781 -7.921875 6.222656 -7.394531 6.859375 -6.84375 C 7.503906 -6.289062 8.195312 -5.785156 8.9375 -5.328125 C 9.6875 -4.867188 10.503906 -4.492188 11.390625 -4.203125 C 12.285156 -3.921875 13.25 -3.78125 14.28125 -3.78125 C 15.195312 -3.78125 16.082031 -3.910156 16.9375 -4.171875 C 17.789062 -4.441406 18.546875 -4.832031 19.203125 -5.34375 C 19.859375 -5.863281 20.378906 -6.515625 20.765625 -7.296875 C 21.160156 -8.078125 21.359375 -8.984375 21.359375 -10.015625 C 21.359375 -11.429688 21.007812 -12.582031 20.3125 -13.46875 C 19.625 -14.363281 18.773438 -15.101562 17.765625 -15.6875 C 16.753906 -16.269531 15.695312 -16.738281 14.59375 -17.09375 C 13.488281 -17.445312 12.53125 -17.785156 11.71875 -18.109375 C 11.082031 -18.359375 10.316406 -18.695312 9.421875 -19.125 C 8.535156 -19.550781 7.691406 -20.128906 6.890625 -20.859375 C 6.097656 -21.585938 5.414062 -22.488281 4.84375 -23.5625 C 4.28125 -24.644531 3.976562 -25.96875 3.9375 -27.53125 C 3.90625 -28.707031 4.066406 -29.878906 4.421875 -31.046875 C 4.773438 -32.222656 5.359375 -33.289062 6.171875 -34.25 C 6.992188 -35.207031 8.078125 -35.988281 9.421875 -36.59375 C 10.773438 -37.195312 12.425781 -37.5 14.375 -37.5 C 15.800781 -37.5 17.273438 -37.25 18.796875 -36.75 C 20.328125 -36.25 22.035156 -35.203125 23.921875 -33.609375 Z M 23.921875 -33.609375 "/></g></g></g></g></g></svg>